<?xml version="1.0" encoding="UTF-8"?>
  <svg
    aria-hidden="true"
    class="image"
    width="820px"
    height="1180px"
    viewBox="0 0 820 1180"
    version="1.1"
    xmlns="http://www.w3.org/2000/svg"
    xmlns:xlink="http://www.w3.org/1999/xlink"
  >
    <title>Juhani Kumara</title>
    <desc>Outline of a frontend developer's head with sunglasses on</desc>
    <g
      id="Page-1"
      stroke="none"
      stroke-width="1"
      fill="none"
      fill-rule="evenodd"
    >
      <g id="Figure" transform="translate(3.513618, 3.342927)">
        <g
          id="Glasses"
          transform="translate(0.000000, 471.060763)"
          stroke="#000000"
          stroke-width="6"
        >
          <path
            d="M698.916068,62.0625285 C704.171327,68.9824803 706.798957,73.0971151 706.798957,74.4064329 C706.798957,75.7157508 706.798957,78.3009188 706.798957,82.1619369 L747.098514,130.375741 L747.098514,111.373064 C747.445319,107.696598 747.445319,104.24098 747.098514,101.006209 C746.751709,97.7714383 745.863133,92.9390057 744.432787,86.5089114 C734.628803,71.4487028 727.608238,61.3715189 723.371092,56.2773597 C719.133946,51.1832005 714.459628,47.2000734 709.34814,44.3279786 L697.420698,21.769943 C658.987691,12.9952327 629.329006,7.39076818 608.444644,4.95654952 C587.560282,2.52233086 554.424603,0.870147686 509.037606,2.84217094e-14 C476.406636,0.799749641 450.673049,2.45193281 431.836845,4.95654952 C413.000641,7.46116622 384.159932,13.0656307 345.314718,21.769943 C331.931196,24.2797245 320.040555,25.5346153 309.642795,25.5346153 C299.245035,25.5346153 282.143942,24.2797245 258.339518,21.769943 C234.539855,15.4526592 214.917365,11.3219868 199.472046,9.37792576 C184.026727,7.43386471 159.055014,5.96007263 124.556906,4.95654952 C94.2140021,5.98968746 71.9951891,7.46347954 57.900467,9.37792576 C43.805745,11.292372 24.8302685,15.4230444 0.974037619,21.769943 L-5.68434189e-14,56.2773597 C2.30386545,57.2330365 4.03977017,58.219383 5.20771413,59.236399 C6.3756581,60.253415 7.52345097,61.7781193 8.65109273,63.8105119 L10.3033296,106.518276 C11.512691,118.841506 12.62921,128.2186 13.6528865,134.649558 C14.676563,141.080517 16.7209421,150.764258 19.7860239,163.700781 C21.6011793,170.395223 23.384401,175.862266 25.135689,180.101912 C26.886977,184.341558 30.1004722,190.609945 34.7761743,198.907073 C39.9326333,204.811441 44.0800809,208.919288 47.2185171,211.230615 C50.3569532,213.541942 55.353467,216.33959 62.2080583,219.623559 C72.2449505,223.343559 80.422467,225.933755 86.7406078,227.394146 C93.0587485,228.854537 102.972779,230.333143 116.482699,231.829964 C130.553645,234.307739 142.771417,234.760682 153.136015,233.188793 C159.161715,232.274939 178.178951,229.989848 186.704762,228.159468 C190.797523,227.280806 197.8326,224.435503 207.809995,219.623559 C214.690378,214.736926 220.563404,209.983312 225.429072,205.362717 C230.29474,200.742121 235.976764,193.997035 242.475144,185.127457 C247.596593,176.562864 251.098244,170.728907 252.980098,167.625586 C254.861952,164.522266 259.236656,154.926262 266.104208,138.837574 C274.42492,112.348458 280.529407,93.4565788 284.417668,82.1619369 C285.316964,79.5496572 291.383043,73.727391 296.110654,72.1638025 C307.38091,68.4363297 322.964952,71.261186 325.39687,72.1638025 C325.907458,72.3533092 334.173933,75.623869 336.947412,82.1619369 C337.811283,84.198386 338.974925,92.5588375 339.522429,97.092983 C339.734948,98.8529544 340.286291,106.745134 343.683329,120.860328 C344.769807,125.374802 347.183805,133.583466 350.925322,145.48632 C354.630772,154.974676 357.52622,161.993523 359.611667,166.542859 C361.697113,171.092194 364.858922,177.287061 369.097091,185.127457 C375.416487,196.06332 380.748551,204.199386 385.093284,209.535657 C389.438017,214.871928 397.444696,221.956585 409.11332,230.789628 C416.368941,235.290662 421.91703,238.226223 425.757589,239.59631 C431.518427,241.65144 448.392791,247.502938 466.804785,249.630564 C473.942582,250.455382 484.823919,251.713586 495.57119,252.304918 C499.640644,252.528826 521.289202,252.894318 555.981139,251.006768 C560.005807,250.78779 575.319845,250.123813 587.055318,247.348032 C590.17146,246.610974 601.188414,244.639967 615.095999,237.905289 C618.273583,236.36656 622.838686,233.117953 628.791308,228.159468 C635.564608,221.919324 640.636479,216.276373 644.006921,211.230615 C647.377362,206.184857 652.192621,195.16191 658.452695,178.161774 C661.02891,171.755542 663.576198,163.687737 666.09456,153.958359 C668.612921,144.228982 671.566524,129.45932 674.955369,109.649373 C677.4502,97.125376 679.55572,85.033418 681.271929,73.3734995 C681.47433,71.9983943 684.814548,68.0309524 688.971568,66.2802284 C692.140684,64.9455588 696.158176,65.7585177 697.420698,64.9281974 C699.366437,63.6485475 699.366437,49.8691221 697.420698,23.5899211"
            id="Glasses-Rim"
            fill="#FFFFFF"
          ></path>
          <path
            d="M42.1868866,33.9172042 C73.5965301,22.468436 100.725502,17.067473 123.573803,17.7143152 C139.19179,18.156465 170.905937,17.761219 202.73756,23.5821858 C210.295118,24.9642168 222.176739,27.1345892 238.833881,33.9172042 C241.289941,34.9172865 250.848252,39.8599177 259.168111,49.1551694 C260.353509,50.4795399 263.705964,55.2808842 263.891072,65.6313702 C264.16857,81.1479525 260.305374,105.667775 255.187591,121.880268 C252.349531,130.87089 245.421814,152.524218 232.387723,173.698682 C228.951569,179.280868 220.526378,199.170068 202.73756,209.770536 C182.999371,221.532645 153.043479,223.728383 133.721336,222.396509 C129.098241,222.07784 102.320039,220.36018 80.4714909,212.918198 C62.5056822,206.798743 48.8254215,195.284846 45.3383048,190.615682 C42.9138678,187.36942 32.0211643,171.875172 25.9115032,133.009391 C24.5663498,124.45238 19.5767738,89.5940064 25.9115032,56.4904243 C27.1954355,49.7809418 31.75952,42.9184273 39.6037569,35.902881 L42.1868866,33.9172042 Z"
            id="Glasses-Left"
            fill="#FFFFFF"
          ></path>
          <path
            d="M487.636443,15.8956621 C506.72085,15.8956621 562.954349,18.8784355 604.106698,25.481734 C609.365799,26.3256084 622.415055,27.993685 633.285758,34.5461955 C646.92091,42.7650271 658.158634,56.9980725 658.013288,67.9307392 C657.828628,81.5801379 656.392458,130.696552 643.388995,172.618824 C640.747101,181.136107 630.23462,211.085506 604.106698,227.281217 C595.23918,232.777855 577.603712,236.153504 551.200294,237.408163 C512.853889,238.127751 485.231263,237.088482 468.332415,234.290355 C457.04017,232.420575 430.981099,228.556552 414.102722,216.44002 C393.093354,201.357961 381.678901,176.929189 376.687553,167.7554 C367.824061,151.464854 364.321081,133.641838 360.086414,119.020397 C353.55544,96.4702764 353.232522,66.3521805 364.715706,49.4417272 C369.577649,42.2818959 391.109832,31.4818104 414.102722,25.481734 C443.260245,17.8729744 475.538549,15.8956621 487.636443,15.8956621 Z"
            id="Glasses-Right"
            fill="#FFFFFF"
          ></path>
        </g>
        <g
          id="Head"
          class="js-draw"
          transform="translate(46.320807, 0.000000)"
          stroke-width="6"
        >
          <path
            d="M2.56298694,681.746128 C0.85432898,693.68547 -1.13686838e-13,708.655785 -1.13686838e-13,726.657073 C-1.13686838e-13,732.423488 8.6844472,775.716012 12.0374239,798.674973 C14.4746294,815.363341 16.4486246,854.61654 17.7681881,865.393503 C18.1820074,868.773194 24.023836,905.351854 34.8450331,931.569194 C37.0881993,937.003884 40.354913,947.918446 48.19668,965.624888 C49.9280974,969.534369 53.4241902,976.29029 58.6849584,985.89265 C61.7167566,991.841911 66.5167806,999.365693 73.0850304,1008.46399 C79.6532802,1017.5623 90.2547689,1031.3726 104.889496,1049.89491 C130.127614,1082.3746 151.696175,1103.97404 169.59518,1114.69322 C181.581078,1121.87122 203.120856,1131.46909 229.033233,1139.10233 C241.816811,1142.8681 306.942936,1154.6846 334.18987,1149.75438 C366.90786,1143.83419 430.559953,1115.21647 450.965097,1106.8401 C459.541163,1103.3196 482.592183,1089.69683 489.328597,1085.02856 C492.554833,1082.79281 511.906749,1067.44621 527.561882,1054.57993 C536.347041,1047.35979 548.77108,1034.29184 564.833999,1015.37608 C582.143911,994.017747 595.959138,970.185876 606.27968,943.88047 C613.256289,926.098215 618.636746,901.775 625.54466,872.639916 C627.751998,863.330159 631.575717,848.349636 637.015816,827.698346 C637.844224,823.213773 638.696643,819.606034 639.573073,816.875127 C640.449502,814.144221 642.112539,809.508266 644.562184,802.967263 L637.015816,825.948988 C642.166437,827.990238 646.262595,829.059256 649.304291,829.156041 C652.345987,829.252827 657.372461,828.474087 664.383714,826.819824 C672.380654,822.344086 678.090067,819.029187 681.511953,816.875127 C684.933838,814.721067 687.776447,812.652511 690.039779,810.669457 C693.724547,805.640883 696.399518,801.642722 698.06469,798.674973 C699.729863,795.707225 701.279329,792.176397 702.713089,788.082489 C708.670526,777.68404 712.994714,767.621706 715.685652,757.895485 C717.871853,749.9936 720.122434,730.95704 722.131681,716.345597 C722.345782,714.788635 722.957789,710.562635 723.859853,706.51344 C724.127126,705.313702 724.578005,703.742266 725.212489,701.799132 C726.498523,692.389471 727.535321,685.705136 728.322883,681.746128 C730.122929,672.697445 732.439963,662.34309 733.998907,656.284824 C735.557852,650.226559 740.524744,626.560154 741.11948,618.320666 C741.345665,615.187085 741.347393,608.065617 741.11948,604.576158 C740.95648,602.08056 740.429334,594.119379 736.38466,588.739383 C735.170656,587.124583 732.165141,583.542254 728.322883,581.819596 C724.338352,580.033151 719.499923,580.1409 717.450115,580.479977 C714.76583,580.924008 710.004317,582.405407 703.165576,584.924174"
            id="Jaw"
            stroke="#000000"
          ></path>
          <path
            d="M23.875917,473.839951 C24.3788957,446.197316 31.1945128,419.532351 44.3227684,393.845055 C52.3387432,378.160663 68.4883065,329.320627 88.3346741,300.427471 C96.7728412,288.142841 111.116697,273.000335 131.366241,254.999954 C167.485798,241.929446 193.169339,234.228194 208.416863,231.896196 C214.6981,230.935526 251.678378,226.408045 294.3041,227.461407 C313.549867,227.937006 326.01323,234.911574 351.151807,234.51932 C369.972251,234.225653 374.424431,233.514889 410.361764,231.896196 C419.442304,231.487189 432.09078,221.86418 449.918782,221.069728 C457.350431,220.738559 472.918148,222.157358 484.110511,225.459838 C489.903687,227.169204 494.182286,231.408272 503.329661,231.896196 C509.207559,232.209725 516.077913,229.277219 528.373763,227.461407 C533.082351,226.766057 541.942872,226.098868 554.955326,225.459838 C578.932205,230.857764 596.100057,238.795192 606.458881,249.272121 C613.360218,256.252142 622.220742,264.02042 627.86372,278.095517 C629.748429,282.796488 629.748429,289.202871 627.86372,297.314667 C634.972781,309.249338 639.649104,318.170247 641.89269,324.077395 C643.163257,327.422676 646.437108,338.131353 645.587182,352.604391 C644.936295,363.688058 635.493704,406.425649 635.493704,416.90459 C635.493704,423.89055 636.564328,434.38129 638.705577,448.37681 C642.321339,461.269376 645.393989,470.624187 647.923526,476.441242"
            id="Head-Outline"
            stroke="#030303"
          ></path>
          <path
            d="M18.0510882,476.128139 C1.62908051,472.577482 13.8111366,461.943701 11.946755,446.64228 C10.0823735,431.340859 10.5032837,404.502482 9.02571366,402.054753 C7.84041255,400.091193 7.9225101,431.568583 6.62101281,437.819702 C5.99330543,440.834593 4.49609868,448.281195 5.16730432,420.586773 C5.83850997,392.892352 9.64621256,361.197132 9.02571366,338.600036 C8.84405387,331.984417 2.45840308,368.220608 3.56298694,362.161343 C6.97109037,343.465978 15.888121,310.945758 18.0510882,289.090776 C18.6194843,283.347607 7.62337121,312.328003 9.02571366,306.965042 C14.0204683,287.863663 29.9030426,250.566637 30.8452825,240.162096 C31.3635633,234.439058 8.26696517,280.727254 11.946755,274.709884 C19.6938283,262.041496 47.9663876,217.335926 53.6990087,202.79058 C56.308509,196.16951 28.6309978,234.568852 28.6309978,232.377051 C28.6309978,229.690004 53.6990087,196.82028 53.6990087,193.032883 C53.6990087,190.179076 27.7696072,222.377139 28.6309978,219.094642 C29.8824553,214.325719 60.5385954,178.249928 57.924705,176.930045 C55.2486406,175.578767 16.4103129,217.02995 18.0510882,213.752319 C20.2071719,209.445303 58.0660249,173.339627 65.5184229,161.760752 C68.7985016,156.664456 34.2868683,185.187354 39.5160416,180.401977 C53.303326,167.784809 97.802445,136.056745 103.551338,126.955661 C107.006777,121.48535 57.924705,152.927203 57.924705,151.259187 C57.924705,149.445375 102.023806,123.173521 103.551338,119.992004 C104.763416,117.467512 63.4039254,143.02858 63.4039254,139.847169 C63.4039254,135.975857 101.039784,110.483138 103.551338,105.886558 C105.259708,102.759944 66.9703163,129.078002 71.8437722,124.400781 C82.5973104,114.080245 129.908268,82.930033 134.805326,75.891042 C138.002571,71.2953487 88.0323782,102.663617 88.0323782,101.131412 C88.0323782,99.4803256 131.957991,73.2095263 134.805326,69.5244583 C136.86323,66.8610857 93.1032726,90.7683357 97.8428548,88.4345313 C105.808933,84.5119773 138.544774,65.9842183 160.216646,57.0117417 C181.888518,48.039265 188.621269,50.2766979 192.746186,49.1431436 C195.189369,48.4717408 170.966247,54.6437591 173.352846,53.4018273 C177.5234,51.2315663 194.634949,45.3031189 205.860491,42.318758 C217.086032,39.3343971 238.62954,36.5328069 239.152973,35.9085666 C239.638066,35.3300512 214.397819,40.5281729 207.877543,39.9132467 C204.965072,39.638572 216.683745,35.5593513 220.287479,34.1293648 C222.837986,33.1173061 235.968802,27.7231944 241.968268,26.3958928 C251.130314,24.3689129 260.994268,24.4872236 264.457669,24.4872236 C270.841271,24.4872236 265.320699,22.5362924 258.144483,20.1026829 C255.441127,19.1859167 246.467801,18.9374253 247.973825,17.8119645 C251.459462,15.2071286 265.806578,8.80789192 273.68745,7.96906005 C286.595213,6.59517112 304.419506,6.62912961 309.936272,6.12612615 C313.840789,5.77012316 306.473748,4.979863 302.888679,4.80867069 C292.678828,4.32113527 280.859942,5.82292336 282.346432,4.80867069 C284.383738,3.41858802 302.888679,0 309.936272,0 C319.140178,0 345.859154,2.05801859 369.137391,6.12612615 C388.498321,9.50964472 405.292246,14.1326273 409.037829,15.2071286 C412.240071,16.1257609 421.45388,11.6654007 447.776199,12.7282642 C459.402864,13.197735 490.65407,20.1026829 479.24392,20.1026829 C474.19298,20.1026829 480.680691,20.0290487 488.709215,21.618968 C498.817248,23.6207005 511.90398,27.4646573 513.508622,28.4802627 C527.924913,37.6045809 559.446092,63.0500497 555.688083,58.8368761 C549.742407,52.1710694 562.793334,66.4937229 570.888528,73.2921278 C580.415023,81.2925505 581.637949,80.2556461 590.931462,88.4345313 C600.156167,96.5528611 607.924963,108.429016 607.924963,105.886558 C607.924963,102.157271 588.934982,75.2119901 590.931462,75.891042 C593.306648,76.6989008 607.667639,103.292363 616.668294,108.860379 C620.536055,111.253066 614.969845,88.231498 616.668294,91.8124493 C621.04284,101.035588 616.509834,118.43462 628.814284,134.46856 C634.940764,142.45198 643.578116,133.908177 653.530154,139.847169 C666.445038,147.554273 663.531571,151.212508 674.548127,161.760752 C679.749865,166.741365 685.143,173.382686 685.966743,170.904881 C687.415838,166.54603 677.174856,145.796973 679.093802,148.087441 C682.154316,151.740493 687.281363,172.418364 695.925664,182.79192 C698.135893,185.444296 698.304768,173.621512 700.802863,174.139304 C704.0182,174.805762 703.91934,179.722719 707.352527,185.160421 C712.199198,192.836891 712.992653,192.509491 717.362578,200.367649 C720.942636,206.805441 720.660426,206.95904 723.252492,213.752319 C726.767233,222.963741 724.410103,223.973539 729.576192,232.377051 C734.670858,240.66438 740.439702,239.058392 743.774004,247.134 C745.782849,251.999381 737.558596,254.080173 740.262486,258.259028 C744.573384,264.921508 755.850392,262.670674 757.803579,268.816671 C759.359435,273.712408 749.241054,273.895407 747.280573,280.342496 C745.468111,286.302823 746.698052,289.1362 750.257693,293.631503 C751.959555,295.780704 757.068257,292.043784 757.803579,293.631503 C758.710209,295.589113 753.541597,296.957997 753.541597,300.722162 C753.541597,308.053336 756.598269,308.177509 757.803579,315.822181 C758.72926,321.693304 755.859967,322.224664 757.803579,327.753752 C760.375128,335.069164 765.980245,337.65035 766.833902,341.511181 C767.17934,343.073491 760.427731,336.42049 760.201769,338.600036 C759.357288,346.745572 764.693014,357.786485 764.693014,362.161343 C764.693014,364.238012 761.511101,350.037965 760.201769,351.503089 C758.066384,353.892552 756.417014,360.902845 757.803579,369.870518 C759.73308,382.349656 766.833902,390.103651 766.833902,394.396709 C766.833902,396.690427 759.69795,381.437572 757.803579,383.044068 C755.182789,385.266593 759.276951,398.130133 757.803579,402.054753 C757.145959,403.806454 753.203675,392.536976 753.541597,394.396709 C754.402769,399.136122 761.200479,412.259421 760.201769,415.253043 C759.558527,417.181153 753.608366,405.680146 750.257693,404.240173 C748.636328,403.543382 749.160777,407.802656 750.257693,410.979515 C752.93372,418.729759 758.6048,424.94426 757.803579,426.094379 C757.11624,427.081024 750.72452,416.365039 747.280573,415.253043 C745.463017,414.666184 748.587477,419.321331 747.280573,422.696668 C745.786788,426.554661 740.204701,426.364424 741.679193,429.719703 C745.466204,438.33723 755.821324,440.653601 757.803579,446.64228 C758.622014,449.114889 749.158702,443.741483 747.280573,446.64228 C743.897199,451.867949 748.533036,455.032051 747.280573,462.895212 C746.779751,466.039448 744.58965,465.579023 743.774004,468.657073 C742.836366,472.195487 744.371451,472.461497 743.774004,476.128139 C743.129333,480.084605 742.379166,479.982795 741.289768,483.903289 C737.067595,499.097917 735.562803,498.970114 733.150862,514.358384 C731.49335,524.933373 734.43488,525.301659 733.150862,535.829808 C732.647545,539.956698 730.162772,539.555031 729.576192,543.668462 C728.375437,552.088831 731.7223,552.98324 729.576192,560.897407 C728.56045,564.643144 725.451196,563.485396 723.252492,566.98827 C720.802488,570.891503 724.013573,573.244271 720.278776,575.709621 C713.945958,579.889934 707.757383,575.13489 703.117262,580.279597 C697.785086,586.191617 700.334183,589.1194 700.334183,597.823076 C700.334183,602.580016 702.554193,602.423003 703.117262,607.20083 C703.669576,611.887397 706.000266,621.026129 710.109332,634.617026 C706.401817,644.519765 702.496131,649.471135 698.392275,649.471135 C692.23649,649.471135 684.874386,651.200021 683.247077,649.471135 C682.526135,648.705192 678.656942,635.251724 675.936839,611.777984 C675.186787,605.305238 673.946987,592.838773 673.202045,577.774557 C673.092562,575.560582 673.092562,572.596842 673.202045,568.883337"
            id="Hair-Outline"
            stroke="#000000"
          ></path>
          <path
            d="M563.956133,1020.05412 C561.459035,1040.94539 560.2612,1054.46132 560.362628,1060.6019 C560.72987,1082.83514 561.950852,1094.64022 563.956133,1108.74246 C566.792171,1128.68702 571.870445,1144.74767 579.190955,1156.92441 C587.424536,1165.26153 593.093398,1171.13826 596.19754,1174.55461"
            id="Neck-Right"
            stroke="#000000"
          ></path>
          <path
            d="M105.952475,1055.44425 C103.062769,1073.91506 100.190617,1087.74397 97.3360198,1096.93099 C94.4814225,1106.118 89.2235637,1118.45409 81.5624434,1133.93924 C72.465014,1138.75078 66.0568058,1142.22206 62.3378189,1144.35308"
            id="Neck-Left"
            stroke="#000000"
          ></path>
        </g>
        <g
          id="Details"
          class="js-draw"
          transform="translate(62.883794, 20.000000)"
        >
          <path
            d="M38.9580785,250.679606 C25.1572137,268.680889 16.0454806,284.282475 11.6228791,297.484363 C7.20027762,310.686251 3.59672944,333.040996 0.812234559,364.548597"
            id="Path-2"
            stroke="#030303"
            stroke-width="3"
          ></path>
          <path
            d="M12.4010577,268.795737 C20.0371997,255.142811 26.3257994,245.022018 31.2668567,238.433356 C36.2079139,231.844694 42.4965136,225.194398 50.1326557,218.482467"
            id="Path-3"
            stroke="#030303"
            stroke-width="3"
          ></path>
          <path
            d="M19.8851565,232.893865 C30.7314359,219.214641 39.0050338,209.68419 44.7059503,204.302511 C50.4068667,198.920832 58.6804646,192.83069 69.526744,186.032085"
            id="Path-4"
            stroke="#030303"
            stroke-width="3"
          ></path>
          <path
            d="M92.9407857,157.657073 C83.7093803,161.238706 76.6530142,164.659451 71.7716871,167.919308 C66.8903601,171.179166 59.8339939,177.183214 50.6025886,185.931454"
            id="Path-8"
            stroke="#030303"
            stroke-width="3"
          ></path>
          <path
            d="M86.6064219,130.382255 C81.2825939,132.218375 77.2301396,133.970395 74.4490589,135.638315 C71.6679782,137.306234 67.6155238,140.415035 62.2916958,144.964718"
            id="Path-9"
            stroke="#030303"
            stroke-width="3"
          ></path>
          <path
            d="M139.009058,214.51932 C125.169147,216.641002 114.409147,220.138228 106.729059,225.011 C99.0489703,229.883772 88.2889703,240.040301 74.4490589,255.480587"
            id="Path-10"
            stroke="#030303"
            stroke-width="3"
          ></path>
          <path
            d="M168.735621,209.462975 C159.844247,206.794217 152.872323,205.459838 147.819848,205.459838 C142.767373,205.459838 135.795449,206.794217 126.904075,209.462975"
            id="Path-11"
            stroke="#030303"
            stroke-width="3"
          ></path>
          <path
            d="M392.292378,191.854813 C352.449602,158.538327 320.554668,137.254064 296.607577,128.002022 C272.660486,118.74998 237.075427,113.963113 189.8524,113.641423"
            id="Path-13"
            stroke="#030303"
            stroke-width="3"
          ></path>
          <path
            d="M365.082905,181.19786 C348.026026,166.231137 331.045522,155.85396 314.141392,150.066329 C297.237263,144.278698 264.744816,137.71734 216.664051,130.382255"
            id="Path-14"
            stroke="#030303"
            stroke-width="3"
          ></path>
          <path
            d="M354.538973,169.962036 C339.193302,157.986147 326.94969,149.653707 317.808138,144.964718 C308.666586,140.275728 295.188905,135.414907 277.375095,130.382255"
            id="Path-15"
            stroke="#030303"
            stroke-width="3"
          ></path>
          <path
            d="M374.158205,207.461407 C342.117277,184.180688 317.298706,168.492475 299.702492,160.396766 C282.106277,152.301057 257.287706,145.152094 225.246779,138.949877"
            id="Path-16"
            stroke="#030303"
            stroke-width="3"
          ></path>
          <path
            d="M349.918618,205.459838 C330.398871,192.068786 313.660162,181.904235 299.702492,174.966186 C285.744822,168.028138 265.40839,159.763457 238.693197,150.172145"
            id="Path-17"
            stroke="#030303"
            stroke-width="3"
          ></path>
          <path
            d="M145.036803,181.19786 C134.781168,178.967182 127.404452,177.839893 122.906656,177.815992 C115.474664,177.776499 102.957566,180.380758 98.3992764,181.19786 C89.703013,182.756719 80.0788356,187.268601 69.526744,194.733506"
            id="Path-18"
            stroke="#030303"
            stroke-width="3"
          ></path>
          <path
            d="M247.805564,198.217284 C233.168081,190.576915 221.393416,184.903774 212.481568,181.19786 C203.569719,177.491946 188.987737,172.204908 168.735621,165.336744"
            id="Path-19"
            stroke="#030303"
            stroke-width="3"
          ></path>
          <path
            d="M500.017358,169.962036 C482.025206,137.247119 466.198267,114.57938 452.53654,101.958819 C445.589544,95.5412567 436.385995,86.7378159 423.735681,79.2130473 C415.584104,74.3642563 400.494207,67.1846245 378.46599,57.6741519"
            id="Path-20"
            stroke="#030303"
            stroke-width="3"
          ></path>
          <path
            d="M435.889055,195.711821 C427.503078,189.623428 420.938713,185.578226 416.195959,183.576216 C411.453206,181.574206 406.556401,180.78142 401.505545,181.19786"
            id="Path-21"
            stroke="#030303"
            stroke-width="3"
          ></path>
          <path
            d="M397.168829,186.471948 C382.939381,170.416111 371.524091,158.316177 362.92296,150.172145 C354.321829,142.028114 344.825028,134.327311 334.432556,127.069737"
            id="Path-22"
            stroke="#030303"
            stroke-width="3"
          ></path>
          <path
            d="M401.505545,177.815992 C389.383588,164.269517 380.036603,154.314091 373.464589,147.949712 C366.892575,141.585334 357.54559,133.437404 345.423633,123.505922"
            id="Path-23"
            stroke="#030303"
            stroke-width="3"
          ></path>
          <path
            d="M439.241674,162.657067 C422.223356,142.042596 408.721047,127.573818 398.734748,119.250731 C388.748449,110.927645 374.016524,101.864586 354.538973,92.0615545"
            id="Path-24"
            stroke="#030303"
            stroke-width="3"
          ></path>
          <path
            d="M441.906037,162.657067 C434.382895,149.416753 428.164041,139.659142 423.249476,133.384233 C418.33491,127.109324 410.202155,118.542828 398.851213,107.684744"
            id="Path-25"
            stroke="#030303"
            stroke-width="3"
          ></path>
          <path
            d="M487.354736,162.657067 C482.246507,154.314008 476.99078,148.022982 471.587555,143.783987 C466.18433,139.544993 455.402369,133.253967 439.241674,124.910908"
            id="Path-26"
            stroke="#030303"
            stroke-width="3"
          ></path>
          <path
            d="M467.226487,175.486165 C463.359276,149.801335 458.466354,131.966026 452.54772,121.980237 C446.629085,111.994448 434.677,101.409233 416.691463,90.224591"
            id="Path-27"
            stroke="#030303"
            stroke-width="3"
          ></path>
          <path
            d="M526.037905,175.486165 C523.599201,167.510465 519.950331,161.421083 515.091297,157.218021 C510.232262,153.014959 499.801627,146.925578 483.799391,138.949877"
            id="Path-28"
            stroke="#030303"
            stroke-width="3"
          ></path>
          <path
            d="M514.307808,152.748118 C511.9329,144.322457 509.588433,137.691543 507.274408,132.855378 C504.960383,128.019213 500.696369,120.838821 494.482366,111.314202"
            id="Path-29"
            stroke="#030303"
            stroke-width="3"
          ></path>
          <path
            d="M546.39379,152.748118 C542.384542,138.186323 532.776217,124.375018 517.568815,111.314202 C512.899758,107.304201 480.807233,76.2448355 473.502867,71.0195879 C462.511937,63.1571216 448.014925,57.0819075 430.01183,52.7939456"
            id="Path-30"
            stroke="#030303"
            stroke-width="3"
          ></path>
          <path
            d="M564.695663,155.790057 C551.426775,125.618382 536.515431,103.763226 519.961632,90.224591 C511.864426,83.6022368 499.140501,69.6214923 483.799391,61.6971306 C473.118052,56.1797462 453.480366,49.4293907 424.886332,41.4460641"
            id="Path-31"
            stroke="#030303"
            stroke-width="3"
          ></path>
          <path
            d="M294.305907,29.6757339 C290.886661,32.5464733 288.593141,34.7829455 287.425349,36.3851503 C286.257557,37.9873551 285.290902,40.2238273 284.525382,43.0945667"
            id="Path-32"
            stroke="#030303"
            stroke-width="3"
          ></path>
          <path
            d="M398.851213,86.0805708 C385.901917,78.4171908 373.851366,72.8327013 362.69956,69.3271023 C351.547753,65.8215033 333.476691,61.9371865 308.486374,57.6741519"
            id="Path-33"
            stroke="#030303"
            stroke-width="3"
          ></path>
          <path
            d="M353.668793,80.4998017 C336.369648,72.9850355 322.340788,67.5697872 311.582213,64.2540567 C300.823638,60.9383261 284.8867,57.1182891 263.7714,52.7939456"
            id="Path-34"
            stroke="#030303"
            stroke-width="3"
          ></path>
          <path
            d="M336.555387,90.224591 C327.303925,86.6711467 320.262345,84.2483313 315.430647,82.9561447 C310.59895,81.6639582 303.55737,80.3203809 294.305907,78.9254128"
            id="Path-35"
            stroke="#030303"
            stroke-width="3"
          ></path>
          <path
            d="M362.09712,120.197271 C339.079741,109.274797 321.209492,101.559904 308.486374,97.0525895 C295.763255,92.5452754 276.281208,87.0276795 250.040231,80.4998017"
            id="Path-36"
            stroke="#030303"
            stroke-width="3"
          ></path>
          <path
            d="M250.040231,173.205642 C237.3257,165.063827 227.340453,159.258632 220.084492,155.790057 C212.82853,152.321483 201.416769,147.898246 185.84921,142.520347"
            id="Path-37"
            stroke="#030303"
            stroke-width="3"
          ></path>
          <path
            d="M45.0149906,315.962521 C42.2892008,321.322357 39.9978452,325.827946 38.1409236,329.47929 C36.284002,333.130633 33.9926464,337.636223 31.2668567,342.996059"
            id="Path-39"
            stroke="#030303"
            stroke-width="3"
          ></path>
          <path
            d="M17.5685328,321.703164 C12.3520856,337.136159 8.93355129,349.802913 7.31293003,359.703427 C5.69230877,369.60394 4.56202032,384.726332 3.9220647,405.070602"
            id="Path-40"
            stroke="#030303"
            stroke-width="3"
          ></path>
          <path
            d="M537.575543,195.711821 C530.392283,192.210505 524.862207,189.773585 520.985315,188.40106 C517.108423,187.028535 511.578347,185.549862 504.395087,183.965041"
            id="Path-41"
            stroke="#030303"
            stroke-width="3"
          ></path>
          <path
            d="M529.023089,179.251757 C544.2316,180.090266 554.710271,182.263784 560.459101,185.772313 C566.207931,189.280841 567.620118,194.364349 564.695663,201.022837"
            id="Path-42"
            stroke="#030303"
            stroke-width="3"
          ></path>
          <path
            d="M564.695663,179.251757 C564.225964,172.616907 563.4085,167.976359 562.243269,165.330113 C561.078038,162.683866 558.451845,159.503848 554.364691,155.790057"
            id="Path-43"
            stroke="#030303"
            stroke-width="3"
          ></path>
          <path
            d="M596.917738,155.790057 C601.88358,144.676692 603.781131,136.115556 602.610388,130.106649 C601.439646,124.097743 596.206087,115.536607 586.909711,104.423242"
            id="Path-44"
            stroke="#030303"
            stroke-width="3"
          ></path>
          <path
            d="M597.106423,143.783987 C597.356299,139.657371 597.356299,136.511858 597.106423,134.347448 C596.856546,132.183038 596.130261,129.037524 594.927566,124.910908"
            id="Path-45"
            stroke="#030303"
            stroke-width="3"
          ></path>
          <path
            d="M590.840014,157.218021 C586.145345,139.888545 581.885163,127.594869 578.059468,120.336992 C574.233773,113.079116 567.045758,103.65397 556.495424,92.0615545"
            id="Path-46"
            stroke="#030303"
            stroke-width="3"
          ></path>
          <path
            d="M549.479409,92.0615545 C534.723296,75.1570174 522.999429,63.6945498 514.307808,57.6741519 C505.616187,51.653754 491.663439,45.3308816 472.449564,38.7055348"
            id="Path-47"
            stroke="#030303"
            stroke-width="3"
          ></path>
          <path
            d="M526.037905,49.7108985 C506.18239,36.5563833 489.559114,27.4596942 476.168078,22.420831 C462.777041,17.3819679 439.44081,11.442443 406.159383,4.60225635"
            id="Path-48"
            stroke="#030303"
            stroke-width="3"
          ></path>
          <path
            d="M514.307808,66.6468737 C498.671185,55.6439894 485.533078,47.7932204 474.893489,43.0945667 C464.253899,38.3959131 447.584847,33.08325 424.886332,27.1565774"
            id="Path-49"
            stroke="#030303"
            stroke-width="3"
          ></path>
          <path
            d="M387.930065,16.7731053 C379.020432,14.5884369 372.275892,13.2727735 367.696445,12.8261152 C363.116999,12.3794568 356.372459,12.3794568 347.462826,12.8261152"
            id="Path-50"
            stroke="#030303"
            stroke-width="3"
          ></path>
          <path
            d="M374.158205,4.60225635 C360.151008,4.2407863 349.611713,4.2407863 342.54032,4.60225635 C335.468927,4.96372639 327.677633,5.90073544 319.166437,7.41328347"
            id="Path-51"
            stroke="#030303"
            stroke-width="3"
          ></path>
          <path
            d="M323.316779,0.168791646 C314.873048,3.23001991 307.954279,5.13116224 302.560471,5.87221864 C297.166664,6.61327504 290.247894,6.61327504 281.804164,5.87221864"
            id="Path-52"
            stroke="#030303"
            stroke-width="3"
          ></path>
          <path
            d="M590.840014,217.712142 C599.244514,216.429072 606.631048,216.429072 612.999615,217.712142 C619.368183,218.995213 625.313073,221.681084 630.834285,225.769757"
            id="Path-53"
            stroke="#030303"
            stroke-width="3"
          ></path>
          <path
            d="M642.513558,231.444674 C657.939681,229.747841 668.855368,226.947048 675.260617,223.042295 C681.665866,219.137542 687.384562,211.797723 692.416705,201.022837"
            id="Path-54"
            stroke="#030303"
            stroke-width="3"
          ></path>
          <path
            d="M651.679889,218.988314 C657.69138,218.452925 662.081369,217.534739 664.849854,216.233755 C667.61834,214.932772 671.071082,212.165455 675.208082,207.931804"
            id="Path-55"
            stroke="#030303"
            stroke-width="3"
          ></path>
          <path
            d="M675.208082,201.022837 C679.347156,195.718089 682.103805,191.189653 683.478027,187.43753 C684.85225,183.685408 685.987598,177.58729 686.884072,169.143176"
            id="Path-56"
            stroke="#030303"
            stroke-width="3"
          ></path>
          <path
            d="M625.721935,207.931804 C636.345723,203.14688 644.088491,199.338747 648.950238,196.507405 C653.811985,193.676064 659.147246,189.867931 664.95602,185.083007"
            id="Path-57"
            stroke="#030303"
            stroke-width="3"
          ></path>
          <path
            d="M625.721935,203.22332 C636.000364,193.22597 643.30935,185.320427 647.648893,179.506689 C651.988436,173.692951 656.481306,165.787407 661.127503,155.790057"
            id="Path-58"
            stroke="#030303"
            stroke-width="3"
          ></path>
          <path
            d="M625.721935,193.172644 C633.956344,187.004947 639.553552,181.789715 642.513558,177.526948 C645.473565,173.264181 648.529009,166.018551 651.679889,155.790057"
            id="Path-59"
            stroke="#030303"
            stroke-width="3"
          ></path>
          <path
            d="M613.501985,160.074255 C616.582759,153.004639 618.514894,147.57455 619.298389,143.783987 C620.081885,139.993425 620.081885,136.075816 619.298389,132.03116"
            id="Path-60"
            stroke="#030303"
            stroke-width="3"
          ></path>
          <path
            d="M717.837265,222.998516 C704.417242,236.755359 694.116658,245.300751 686.935512,248.634691 C679.754367,251.96863 669.453783,252.987598 656.033759,251.691593"
            id="Path-61"
            stroke="#030303"
            stroke-width="3"
          ></path>
          <path
            d="M705.373245,201.022837 C703.621004,208.725034 702.016485,213.967368 700.55969,216.749839 C699.102894,219.532311 696.388566,222.53895 692.416705,225.769757"
            id="Path-62"
            stroke="#030303"
            stroke-width="3"
          ></path>
          <path
            d="M628.366216,252.235756 C642.246697,264.210614 653.167126,272.685526 661.127503,277.660492 C669.08788,282.635458 681.677038,288.85324 698.894975,296.313839"
            id="Path-63"
            stroke="#030303"
            stroke-width="3"
          ></path>
          <path
            d="M623.547189,268.873949 C630.461624,275.40976 636.783747,280.558592 642.513558,284.320447 C648.24337,288.082302 657.605979,293.231135 670.601385,299.766946"
            id="Path-64"
            stroke="#030303"
            stroke-width="3"
          ></path>
          <path
            d="M704.534867,373.002371 C695.008985,366.71048 688.087761,361.750264 683.771196,358.121723 C679.45463,354.493181 674.574363,349.532965 669.130394,343.241074"
            id="Path-65"
            stroke="#030303"
            stroke-width="3"
          ></path>
          <path
            d="M676.691112,355.887874 C681.775744,360.152317 685.190544,363.553618 686.935512,366.091779 C688.680481,368.629939 689.942425,372.031241 690.721344,376.295683"
            id="Path-66"
            stroke="#030303"
            stroke-width="3"
          ></path>
          <path
            d="M672.376643,463.644522 C676.008961,467.984101 679.066411,471.136224 681.548993,473.100892 C684.031575,475.065559 687.089026,476.752649 690.721344,478.162162"
            id="Path-67"
            stroke="#030303"
            stroke-width="3"
          ></path>
          <path
            d="M669.130394,435.274318 C677.192336,442.046983 683.016401,447.309132 686.602589,451.060763 C690.188777,454.812395 692.375629,457.930735 693.163145,460.415784"
            id="Path-68"
            stroke="#030303"
            stroke-width="3"
          ></path>
          <path
            d="M741.233025,354.324946 C736.473795,347.678097 733.372383,342.767282 731.928789,339.592499 C730.485194,336.417717 729.84346,333.09653 730.003586,329.628936"
            id="Path-69"
            stroke="#030303"
            stroke-width="3"
          ></path>
          <path
            d="M720.840538,312.77821 C724.921487,315.152781 727.47675,317.141282 728.506327,318.743713 C729.535905,320.346144 729.535905,322.334645 728.506327,324.709216"
            id="Path-70"
            stroke="#030303"
            stroke-width="3"
          ></path>
          <path
            d="M715.900023 329.628936, L727.034242 335.318081"
            id="Path-71"
            stroke="#030303"
            stroke-width="3"
          ></path>
          <path
            d="M711.516602,304.127383 C715.537884,301.141267 718.645863,299.095671 720.840538,297.990593 C723.035214,296.885515 725.099782,296.326597 727.034242,296.313839"
            id="Path-72"
            stroke="#030303"
            stroke-width="3"
          ></path>
          <path
            d="M644.101659 304.127383, L653.190282 310.237905"
            id="Path-73"
            stroke="#030303"
            stroke-width="3"
          ></path>
          <path
            d="M650.288796 320.524991, L666.996144 327.719056"
            id="Path-74"
            stroke="#030303"
            stroke-width="3"
          ></path>
          <path
            d="M242.229051,92.0615545 C231.560497,88.9207246 223.03883,86.9270634 216.664051,86.0805708 C210.289273,85.2340782 200.017659,84.7322219 185.84921,84.5750019"
            id="Path-75"
            stroke="#030303"
            stroke-width="3"
          ></path>
          <path
            d="M238.693197,82.2771069 C232.261717,80.6612966 226.401955,79.4422694 221.113909,78.6200254 C215.825863,77.7977814 206.005922,76.5787542 191.654086,74.9629439"
            id="Path-76"
            stroke="#030303"
            stroke-width="3"
          ></path>
          <path
            d="M310.575213,74.9629439 C298.957299,70.8148479 287.890593,67.4679341 277.375095,64.9222025 C266.859597,62.3764709 250.276519,59.029557 227.62586,54.8814611"
            id="Path-77"
            stroke="#030303"
            stroke-width="3"
          ></path>
          <path
            d="M214.039131,54.8814611 C204.749637,53.4897841 197.287955,52.7939456 191.654086,52.7939456 C186.020216,52.7939456 177.118734,53.4897841 164.949641,54.8814611"
            id="Path-78"
            stroke="#030303"
            stroke-width="3"
          ></path>
          <path
            d="M225.246779,45.1931274 C213.039297,41.549288 203.545648,39.6093871 196.765831,39.3734247 C189.986015,39.1374623 179.380618,40.377843 164.949641,43.0945667"
            id="Path-79"
            stroke="#030303"
            stroke-width="3"
          ></path>
          <path
            d="M259.822211,16.7731053 C245.465328,18.561607 234.733211,20.2226313 227.62586,21.7561781 C220.518509,23.289725 211.317856,25.9295769 200.023901,29.6757339"
            id="Path-80"
            stroke="#030303"
            stroke-width="3"
          ></path>
          <path
            d="M235.953784,97.282832 C214.343438,96.4564315 198.97631,96.4564315 189.8524,97.282832 C180.728491,98.1092324 171.320951,100.353204 161.629782,104.014747"
            id="Path-81"
            stroke="#030303"
            stroke-width="3"
          ></path>
          <path
            d="M214.039131,133.389324 C198.603197,133.916845 187.118935,134.666508 179.586345,135.638315 C172.053755,136.610121 163.452492,138.451763 153.782556,141.163241"
            id="Path-82"
            stroke="#030303"
            stroke-width="3"
          ></path>
          <path
            d="M200.378927,125.238562 C174.990264,126.547075 155.952564,128.261639 143.265829,130.382255 C130.579093,132.502871 117.859948,136.096533 105.108393,141.163241"
            id="Path-83"
            stroke="#030303"
            stroke-width="3"
          ></path>
          <path
            d="M170.259321,133.389324 C159.741503,132.673151 151.333997,132.673151 145.036803,133.389324 C138.739609,134.105497 130.849434,135.959015 121.366278,138.949877"
            id="Path-84"
            stroke="#030303"
            stroke-width="3"
          ></path>
          <path
            d="M173.577086,185.931454 C169.843069,182.175092 166.392998,179.46979 163.226875,177.815547 C160.060751,176.161305 155.392003,174.624669 149.22063,173.205642"
            id="Path-85"
            stroke="#030303"
            stroke-width="3"
          ></path>
          <path
            d="M109.594916,186.274527 C96.0576006,192.114995 86.330867,197.031098 80.4147147,201.022837 C74.4985624,205.014576 67.3439341,211.488643 58.9508299,220.44504"
            id="Path-86"
            stroke="#030303"
            stroke-width="3"
          ></path>
          <path
            d="M116.613747,165.336744 C108.652996,166.127565 102.537438,167.158325 98.2670743,168.429025 C93.9967105,169.699724 87.8811528,172.308484 79.9204012,176.255305"
            id="Path-87"
            stroke="#030303"
            stroke-width="3"
          ></path>
          <path
            d="M86.6064219,146.504339 C77.9951903,150.115341 71.7153111,153.21058 67.7667841,155.790057 C63.8182572,158.369535 59.2060616,162.389826 53.9301974,167.850929"
            id="Path-88"
            stroke="#030303"
            stroke-width="3"
          ></path>
          <path
            d="M371.424986,191.854813 C360.399502,184.263241 351.732384,178.807026 345.423633,175.486165 C339.114882,172.165305 329.292682,167.888939 315.957034,162.657067"
            id="Path-89"
            stroke="#030303"
            stroke-width="3"
          ></path>
          <path
            d="M401.505545 165.336744, L368.635457 132.03116"
            id="Path-90"
            stroke="#030303"
            stroke-width="3"
          ></path>
          <path
            d="M426.391172 181.090298, L390.365987 143.783987"
            id="Path-91"
            stroke="#030303"
            stroke-width="3"
          ></path>
          <path
            d="M435.889055 169.962036, L420.378625 152.748118"
            id="Path-92"
            stroke="#030303"
            stroke-width="3"
          ></path>
          <path
            d="M424.886332 167.954609, L405.645718 148.683952"
            id="Path-93"
            stroke="#030303"
            stroke-width="3"
          ></path>
          <path
            d="M456.013323,173.205642 C449.20484,159.650005 443.742084,149.421573 439.625053,142.520347 C435.508022,135.619121 430.045265,127.53352 423.236783,118.263543"
            id="Path-94"
            stroke="#030303"
            stroke-width="3"
          ></path>
          <path
            d="M439.625053,155.790057 C433.913557,143.674594 429.00065,134.704495 424.886332,128.879762 C420.772014,123.055028 414.358476,115.990022 405.645718,107.684744"
            id="Path-95"
            stroke="#030303"
            stroke-width="3"
          ></path>
          <path
            d="M586.909711,209.657068 C592.923195,204.372646 597.887243,200.814008 601.801854,198.981155 C605.716466,197.148302 610.680514,196.058524 616.693998,195.711821"
            id="Path-96"
            stroke="#030303"
            stroke-width="3"
          ></path>
          <path
            d="M644.101659,358.121723 C653.223426,374.815436 660.345255,387.308745 665.467145,395.60165 C670.589035,403.894554 677.710864,414.463297 686.832631,427.307876"
            id="Path-97"
            stroke="#030303"
            stroke-width="3"
          ></path>
          <path
            d="M695.432773,389.76938 C697.734645,397.862334 699.791143,403.999012 701.602265,408.179413 C703.413388,412.359813 705.469885,415.716676 707.771757,418.250002"
            id="Path-98"
            stroke="#030303"
            stroke-width="3"
          ></path>
          <path
            d="M707.771757,442.831622 C710.871304,446.379531 712.848907,449.122578 713.704566,451.060763 C714.560225,452.998948 714.560225,454.735442 713.704566,456.270244"
            id="Path-99"
            stroke="#030303"
            stroke-width="3"
          ></path>
          <path
            d="M699.572648,493.146863 C699.968104,498.3858 700.644643,502.418155 701.602265,505.243928 C702.559887,508.0697 704.616384,512.102055 707.771757,517.340992"
            id="Path-100"
            stroke="#030303"
            stroke-width="3"
          ></path>
          <path
            d="M704.534867 546.266705, L697.269692 521.278743"
            id="Path-101"
            stroke="#030303"
            stroke-width="3"
          ></path>
          <path
            d="M686.832631 515.988961, L679.478598 493.146863"
            id="Path-102"
            stroke="#030303"
            stroke-width="3"
          ></path>
          <path
            d="M679.597146 613.005744, L667.316097 594.992597"
            id="Path-102"
            stroke="#030303"
            stroke-width="3"
          ></path>
          <path
            d="M681.35531,595.232738 C678.756714,591.066571 676.457151,587.705825 674.456622,585.1505 C672.456092,582.595174 669.493491,579.234428 665.568818,575.068262"
            id="Path-102"
            stroke="#030303"
            stroke-width="3"
          ></path>
          <path
            d="M679.383638 630.170219, L669.529605 612.828122"
            id="Path-102"
            stroke="#030303"
            stroke-width="3"
          ></path>
          <path
            d="M168.735621,78.6200254 C155.593461,83.0017773 146.30124,87.482287 140.858957,92.0615545 C135.416674,96.640822 130.765047,103.893002 126.904075,113.818094"
            id="Path-5"
            stroke="#000000"
            stroke-width="3"
          ></path>
          <path
            d="M168.735621,61.6510558 C157.779265,65.0282056 149.879659,68.4369741 145.036803,71.8773614 C140.193947,75.3177486 135.580859,80.7980542 131.197542,88.3182782"
            id="Path-6"
            stroke="#000000"
            stroke-width="3"
          ></path>
          <path
            d="M149.22063,54.8814611 C138.82831,58.4829144 131.389458,61.8298282 126.904075,64.9222025 C122.418691,68.0145768 117.471365,73.2071098 112.062098,80.4998017"
            id="Path-7"
            stroke="#000000"
            stroke-width="3"
          ></path>
          <path
            d="M538.221695,849.655943 C534.671599,856.769035 532.522938,862.600461 531.775711,867.150222 C531.028485,871.699982 531.028485,878.95146 531.775711,888.904654"
            id="Path"
            stroke="#000000"
            stroke-width="4"
          ></path>
          <path
            d="M688.653525,596.295747 C691.579187,592.233546 694.117909,589.407011 696.269692,587.816144 C697.73507,586.732752 705.077311,578.067358 710.627684,582.881861 C711.922632,584.005124 714.601525,587.910115 715.93739,594.513779 C716.238825,596.003876 716.238825,598.539104 715.93739,602.119463"
            id="Ear-Upper"
            stroke="#000000"
            stroke-width="3"
          ></path>
          <path
            d="M693.546345,614.617026 C695.313202,614.78474 696.554317,615.729676 697.269692,617.451834 C697.94514,619.077876 698.473975,622.309524 699.040606,624.942719 C699.799974,628.471579 699.947479,634.325872 700.90228,641.479962 C701.495296,645.923288 702.706158,653.990581 704.534867,665.681839"
            id="Ear-Middle"
            stroke="#000000"
            stroke-width="3"
          ></path>
          <path
            d="M665.082603,648.235298 C663.790837,653.314189 663.106293,656.807439 663.028971,658.715049 C662.786965,664.685611 664.26799,667.907551 664.137562,668.390903 C663.346544,671.322335 658.648346,677.207016 659.469865,680.877354 C661.006904,687.744451 665.839212,696.592985 666.426154,701.01387 C667.026587,705.536381 666.578737,711.908613 665.082603,720.130565"
            id="Ear-Lower"
            stroke="#000000"
            stroke-width="4"
          ></path>
          <path
            d="M222.877762,598.066201 C228.144847,594.207889 232.205473,592.228929 235.059638,592.12932 C244.144012,591.81228 252.574934,597.356033 253.775975,599.26947 C254.574794,600.542107 267.695939,617.098994 276.88781,637.958116 C280.876849,647.010448 288.065071,666.543849 295.32279,688.689726 C297.845585,696.387668 317.931975,699.775923 323.643382,713.602671 C325.171036,717.300969 332.802536,728.663378 331.658415,737.564253 C331.197631,741.148994 327.539014,745.787836 320.682562,751.480779"
            id="Nose-Upper"
            stroke="#000000"
            stroke-width="6"
          ></path>
          <path
            d="M302.820514,750.213977 C291.37264,747.995101 282.431642,746.789941 275.997521,746.598496 C269.5634,746.407052 259.628868,747.050579 246.193925,748.529077"
            id="Nose-Right"
            stroke="#000000"
            stroke-width="6"
          ></path>
          <path
            d="M201.021337,750.213977 C193.071722,744.720483 186.812361,741.075813 182.243252,739.279965 C177.674144,737.484117 171.414782,736.208415 163.465168,735.452858"
            id="Nose-Left"
            stroke="#000000"
            stroke-width="6"
          ></path>
          <path
            d="M179.480638,763.51885 C175.374037,762.007678 172.485058,760.669542 170.8137,759.504442 C160.707368,752.459338 154.438141,744.912613 150.933014,739.650513 C146.558384,733.083066 144.880241,725.220199 145.898584,716.061912"
            id="Nose-Lower"
            stroke="#000000"
            stroke-width="6"
          ></path>
          <path
            d="M118.321979,863.766835 C120.900305,863.777497 122.79898,863.777497 124.018006,863.766835 C126.16154,863.748088 128.717475,863.530427 129.808137,863.766835 C133.557972,864.579638 135.869274,866.403419 137.688334,866.733843 C142.473489,867.603045 145.455043,867.395758 147.743837,867.905533 C154.214874,869.346804 155.11088,871.259998 159.246361,871.780883 C169.187598,873.033032 181.600695,871.096458 189.213322,871.780883 C204.317182,873.138817 214.842498,876.392759 233.025146,876.748725 C243.364906,876.951148 254.431839,880.665828 265.480344,880.088744 C277.284761,879.472177 289.097942,874.569145 300.945341,875.080066 C314.662323,875.671614 327.785292,881.238859 341.051711,880.088744 C345.921768,879.66654 353.785217,876.78159 361.012247,875.080066 C366.847739,873.706165 376.724799,871.314654 390.643426,867.905533"
            id="Mouth-Middle"
            stroke="#000000"
            stroke-width="6"
          ></path>
          <path
            d="M229.035943,835.92936 C238.262242,835.14914 244.803932,834.31708 248.661011,833.433179 C261.336935,830.528322 270.773013,826.852781 278.267254,827.737995 C284.521059,828.47669 296.500246,830.008741 305.887818,834.183056 C310.55223,836.257152 317.033058,840.63066 325.330301,847.303579"
            id="Mouth-Upper"
            stroke="#000000"
            stroke-width="6"
          ></path>
          <path
            d="M115.954348,874.930637 C120.203849,876.254428 123.184382,878.025795 124.895947,880.244736 C128.95164,885.502699 131.986982,895.71832 133.873988,898.141625 C139.872414,905.844839 142.994129,909.977421 145.982378,912.990437 C154.185631,921.26168 155.998715,919.636478 164.391553,923.309536 C184.301522,932.022975 240.040131,936.235822 254.482703,938.713478 C286.892564,944.273463 321.052765,936.794395 356.963305,916.276271"
            id="Mouth-Lower"
            stroke="#000000"
            stroke-width="6"
          ></path>
        </g>
        <g
          id="Highlights"
          class="js-draw"
          transform="translate(31.527191, 498.162162)"
          stroke="#A4FFBA"
        >
          <path
            id="Highlight-Left"
            stroke-width="8"
            d="M14.7936161 16.4930079 76.7392746 1.42108547e-14 4.69832293 35.1820166 111.811691 1.42108547e-14 4.69832293 50.7779162 146.523244 2.90455668 1.42108547e-14 64.494859 168.169421 7.71088704 4.69832293 76.8986017 193.901995 13.3589304 4.69832293 89.0907565 210.837241 20.4613496 1.42108547e-14 106.476227 222.847248 28.6885358 9.3147092 117.286281 222.847248 43.4576199 9.3147092 132.753689 219.448739 57.3458849 17.3566031 142.630781 213.599855 71.3153907 27.1489695 152.077367 210.837241 86.6624516 38.6695331 161.889622 203.821182 106.476227 54.770937 172.587944 197.966435 122.334697 80.5064991 179.109358 188.718765 142.630781 102.897555 181.792783 172.808154 161.889622 125.435725 181.792783"
          ></path>
          <path
            id="Highlight-Right"
            stroke-width="10"
            d="M347.558635 32.407174 426.825674 5.44896974 342.128096 47.8138832 462.333328 5.44896974 341.459192 61.3000591 505.498616 5.44896974 347.558635 76.075808 534.10162 10.1954812 356.158988 89.9124035 565.457014 14.8737713 356.158988 105.81904 593.343771 21.3720655 356.158988 124.450654 610.74861 32.407174 366.914844 134.794296 610.74861 47.8138832 378.141764 147.727044 610.74861 61.3000591 386.695332 160.18462 610.74861 76.8986017 397.90709 168.177371 610.74861 90.8963917 407.686772 179.762058 607.87236 105.81904 423.200936 188.573527 601.096779 124.450654 447.875258 191.469247 593.343771 141.841731 470.625854 195.639146 584.497123 160.18462 512.211114 195.639146 576.887305 175.074245 544.374891 191.469247"
          ></path>
        </g>
      </g>
    </g>
  </svg>